<svg version="1.1" xmlns="http://www.w3.org/2000/svg" xmlns:xlink="http://www.w3.org/1999/xlink" width="220" height="244"><defs/><g><text fill="#eeeeee" stroke="none" font-family="Arial" font-size="24px" font-style="normal" font-weight="normal" text-decoration="none" x="0" y="0">UNREGISTERED</text><text fill="#eeeeee" stroke="none" font-family="Arial" font-size="24px" font-style="normal" font-weight="normal" text-decoration="none" x="0" y="30">UNREGISTERED</text><text fill="#eeeeee" stroke="none" font-family="Arial" font-size="24px" font-style="normal" font-weight="normal" text-decoration="none" x="0" y="60">UNREGISTERED</text><text fill="#eeeeee" stroke="none" font-family="Arial" font-size="24px" font-style="normal" font-weight="normal" text-decoration="none" x="0" y="90">UNREGISTERED</text><text fill="#eeeeee" stroke="none" font-family="Arial" font-size="24px" font-style="normal" font-weight="normal" text-decoration="none" x="0" y="120">UNREGISTERED</text><text fill="#eeeeee" stroke="none" font-family="Arial" font-size="24px" font-style="normal" font-weight="normal" text-decoration="none" x="0" y="150">UNREGISTERED</text><text fill="#eeeeee" stroke="none" font-family="Arial" font-size="24px" font-style="normal" font-weight="normal" text-decoration="none" x="0" y="180">UNREGISTERED</text><text fill="#eeeeee" stroke="none" font-family="Arial" font-size="24px" font-style="normal" font-weight="normal" text-decoration="none" x="0" y="210">UNREGISTERED</text><text fill="#eeeeee" stroke="none" font-family="Arial" font-size="24px" font-style="normal" font-weight="normal" text-decoration="none" x="0" y="240">UNREGISTERED</text><text fill="#eeeeee" stroke="none" font-family="Arial" font-size="24px" font-style="normal" font-weight="normal" text-decoration="none" x="200" y="0">UNREGISTERED</text><text fill="#eeeeee" stroke="none" font-family="Arial" font-size="24px" font-style="normal" font-weight="normal" text-decoration="none" x="200" y="30">UNREGISTERED</text><text fill="#eeeeee" stroke="none" font-family="Arial" font-size="24px" font-style="normal" font-weight="normal" text-decoration="none" x="200" y="60">UNREGISTERED</text><text fill="#eeeeee" stroke="none" font-family="Arial" font-size="24px" font-style="normal" font-weight="normal" text-decoration="none" x="200" y="90">UNREGISTERED</text><text fill="#eeeeee" stroke="none" font-family="Arial" font-size="24px" font-style="normal" font-weight="normal" text-decoration="none" x="200" y="120">UNREGISTERED</text><text fill="#eeeeee" stroke="none" font-family="Arial" font-size="24px" font-style="normal" font-weight="normal" text-decoration="none" x="200" y="150">UNREGISTERED</text><text fill="#eeeeee" stroke="none" font-family="Arial" font-size="24px" font-style="normal" font-weight="normal" text-decoration="none" x="200" y="180">UNREGISTERED</text><text fill="#eeeeee" stroke="none" font-family="Arial" font-size="24px" font-style="normal" font-weight="normal" text-decoration="none" x="200" y="210">UNREGISTERED</text><text fill="#eeeeee" stroke="none" font-family="Arial" font-size="24px" font-style="normal" font-weight="normal" text-decoration="none" x="200" y="240">UNREGISTERED</text><g transform="translate(-54,-54) scale(1,1)"><rect fill="#C0C0C0" stroke="none" x="71" y="71" width="80" height="15" opacity="0.2"/></g><g transform="translate(-54,-54) scale(1,1)"><rect fill="#C0C0C0" stroke="none" x="71" y="85" width="200" height="210" opacity="0.2"/></g><g transform="translate(-54,-54) scale(1,1)"><rect fill="#ffffff" stroke="none" x="64" y="79" width="200" height="209"/></g><g transform="translate(-54,-54) scale(1,1)"><path fill="none" stroke="#000000" d="M 64 79 L 264 79 L 264 288 L 64 288 L 64 79 Z Z" stroke-miterlimit="10"/></g><g transform="translate(-54,-54) scale(1,1)"><rect fill="#ffffff" stroke="none" x="64" y="64" width="80" height="15"/></g><g transform="translate(-54,-54) scale(1,1)"><path fill="none" stroke="#000000" d="M 64 64 L 144 64 L 144 79 L 64 79 L 64 64 Z Z" stroke-miterlimit="10"/></g><g transform="translate(-54,-54) scale(1,1)"><rect fill="#ffffff" stroke="none" x="64" y="78" width="200" height="210"/></g><g transform="translate(-54,-54) scale(1,1)"><path fill="none" stroke="#000000" d="M 64 78 L 264 78 L 264 288 L 64 288 L 64 78 Z Z" stroke-miterlimit="10"/></g><g transform="translate(-54,-54) scale(1,1)"><g><path fill="none" stroke="none"/><text fill="#000000" stroke="none" font-family="Arial" font-size="13px" font-style="normal" font-weight="bold" text-decoration="none" x="141.246826171875" y="98.5">Comum</text></g></g><g transform="translate(-54,-54) scale(1,1)"><g><path fill="none" stroke="none"/><text fill="#000000" stroke="none" font-family="Arial" font-size="13px" font-style="normal" font-weight="normal" text-decoration="none" x="127.161376953125" y="113.5">(from Model)</text></g></g><g transform="translate(-54,-54) scale(1,1)"><rect fill="#C0C0C0" stroke="none" x="79" y="135" width="19.781445312499997" height="15" opacity="0.2"/></g><g transform="translate(-54,-54) scale(1,1)"><rect fill="#C0C0C0" stroke="none" x="79" y="149" width="49.45361328125" height="25" opacity="0.2"/></g><g transform="translate(-54,-54) scale(1,1)"><rect fill="#ffffff" stroke="none" x="72" y="143" width="49.45361328125" height="24"/></g><g transform="translate(-54,-54) scale(1,1)"><path fill="none" stroke="#000000" d="M 72 143 L 121.45361328125 143 L 121.45361328125 167 L 72 167 L 72 143 Z Z" stroke-miterlimit="10"/></g><g transform="translate(-54,-54) scale(1,1)"><rect fill="#ffffff" stroke="none" x="72" y="128" width="19.781445312499997" height="15"/></g><g transform="translate(-54,-54) scale(1,1)"><path fill="none" stroke="#000000" d="M 72 128 L 91.7814453125 128 L 91.7814453125 143 L 72 143 L 72 128 Z Z" stroke-miterlimit="10"/></g><g transform="translate(-54,-54) scale(1,1)"><rect fill="#ffffff" stroke="none" x="72" y="142" width="49.45361328125" height="25"/></g><g transform="translate(-54,-54) scale(1,1)"><path fill="none" stroke="#000000" d="M 72 142 L 121.45361328125 142 L 121.45361328125 167 L 72 167 L 72 142 Z Z" stroke-miterlimit="10"/></g><g transform="translate(-54,-54) scale(1,1)"><g><path fill="none" stroke="none"/><text fill="#000000" stroke="none" font-family="Arial" font-size="13px" font-style="normal" font-weight="bold" text-decoration="none" x="76.858642578125" y="162.5">VISAO</text></g></g><g transform="translate(-54,-54) scale(1,1)"><rect fill="#C0C0C0" stroke="none" x="79" y="207" width="26.421093749999997" height="15" opacity="0.2"/></g><g transform="translate(-54,-54) scale(1,1)"><rect fill="#C0C0C0" stroke="none" x="79" y="221" width="66.052734375" height="25" opacity="0.2"/></g><g transform="translate(-54,-54) scale(1,1)"><rect fill="#ffffff" stroke="none" x="72" y="215" width="66.052734375" height="24"/></g><g transform="translate(-54,-54) scale(1,1)"><path fill="none" stroke="#000000" d="M 72 215 L 138.052734375 215 L 138.052734375 239 L 72 239 L 72 215 Z Z" stroke-miterlimit="10"/></g><g transform="translate(-54,-54) scale(1,1)"><rect fill="#ffffff" stroke="none" x="72" y="200" width="26.421093749999997" height="15"/></g><g transform="translate(-54,-54) scale(1,1)"><path fill="none" stroke="#000000" d="M 72 200 L 98.42109375 200 L 98.42109375 215 L 72 215 L 72 200 Z Z" stroke-miterlimit="10"/></g><g transform="translate(-54,-54) scale(1,1)"><rect fill="#ffffff" stroke="none" x="72" y="214" width="66.052734375" height="25"/></g><g transform="translate(-54,-54) scale(1,1)"><path fill="none" stroke="#000000" d="M 72 214 L 138.052734375 214 L 138.052734375 239 L 72 239 L 72 214 Z Z" stroke-miterlimit="10"/></g><g transform="translate(-54,-54) scale(1,1)"><g><path fill="none" stroke="none"/><text fill="#000000" stroke="none" font-family="Arial" font-size="13px" font-style="normal" font-weight="bold" text-decoration="none" x="76.85546875" y="234.5">MODELO</text></g></g><g transform="translate(-54,-54) scale(1,1)"><rect fill="#C0C0C0" stroke="none" x="175" y="207" width="19.599999999999994" height="15" opacity="0.2"/></g><g transform="translate(-54,-54) scale(1,1)"><rect fill="#C0C0C0" stroke="none" x="175" y="221" width="49" height="25" opacity="0.2"/></g><g transform="translate(-54,-54) scale(1,1)"><rect fill="#ffffff" stroke="none" x="168" y="215" width="49" height="24"/></g><g transform="translate(-54,-54) scale(1,1)"><path fill="none" stroke="#000000" d="M 168 215 L 217 215 L 217 239 L 168 239 L 168 215 Z Z" stroke-miterlimit="10"/></g><g transform="translate(-54,-54) scale(1,1)"><rect fill="#ffffff" stroke="none" x="168" y="200" width="19.599999999999994" height="15"/></g><g transform="translate(-54,-54) scale(1,1)"><path fill="none" stroke="#000000" d="M 168 200 L 187.6 200 L 187.6 215 L 168 215 L 168 200 Z Z" stroke-miterlimit="10"/></g><g transform="translate(-54,-54) scale(1,1)"><rect fill="#ffffff" stroke="none" x="168" y="214" width="49" height="25"/></g><g transform="translate(-54,-54) scale(1,1)"><path fill="none" stroke="#000000" d="M 168 214 L 217 214 L 217 239 L 168 239 L 168 214 Z Z" stroke-miterlimit="10"/></g><g transform="translate(-54,-54) scale(1,1)"><g><path fill="none" stroke="none"/><text fill="#000000" stroke="none" font-family="Arial" font-size="13px" font-style="normal" font-weight="bold" text-decoration="none" x="178.41455078125" y="234.5">DAO</text></g></g><g transform="translate(-54,-54) scale(1,1)"><rect fill="#C0C0C0" stroke="none" x="175" y="135" width="29.891992187499994" height="15" opacity="0.2"/></g><g transform="translate(-54,-54) scale(1,1)"><rect fill="#C0C0C0" stroke="none" x="175" y="149" width="74.72998046875" height="25" opacity="0.2"/></g><g transform="translate(-54,-54) scale(1,1)"><rect fill="#ffffff" stroke="none" x="168" y="143" width="74.72998046875" height="24"/></g><g transform="translate(-54,-54) scale(1,1)"><path fill="none" stroke="#000000" d="M 168 143 L 242.72998046875 143 L 242.72998046875 167 L 168 167 L 168 143 Z Z" stroke-miterlimit="10"/></g><g transform="translate(-54,-54) scale(1,1)"><rect fill="#ffffff" stroke="none" x="168" y="128" width="29.891992187499994" height="15"/></g><g transform="translate(-54,-54) scale(1,1)"><path fill="none" stroke="#000000" d="M 168 128 L 197.8919921875 128 L 197.8919921875 143 L 168 143 L 168 128 Z Z" stroke-miterlimit="10"/></g><g transform="translate(-54,-54) scale(1,1)"><rect fill="#ffffff" stroke="none" x="168" y="142" width="74.72998046875" height="25"/></g><g transform="translate(-54,-54) scale(1,1)"><path fill="none" stroke="#000000" d="M 168 142 L 242.72998046875 142 L 242.72998046875 167 L 168 167 L 168 142 Z Z" stroke-miterlimit="10"/></g><g transform="translate(-54,-54) scale(1,1)"><g><path fill="none" stroke="none"/><text fill="#000000" stroke="none" font-family="Arial" font-size="13px" font-style="normal" font-weight="bold" text-decoration="none" x="172.858642578125" y="162.5">CONEXAO</text></g></g></g></svg>