<svg version="1.1" xmlns="http://www.w3.org/2000/svg" xmlns:xlink="http://www.w3.org/1999/xlink" width="537" height="176"><defs/><g><text fill="#eeeeee" stroke="none" font-family="Arial" font-size="24px" font-style="normal" font-weight="normal" text-decoration="none" x="0" y="0">UNREGISTERED</text><text fill="#eeeeee" stroke="none" font-family="Arial" font-size="24px" font-style="normal" font-weight="normal" text-decoration="none" x="0" y="30">UNREGISTERED</text><text fill="#eeeeee" stroke="none" font-family="Arial" font-size="24px" font-style="normal" font-weight="normal" text-decoration="none" x="0" y="60">UNREGISTERED</text><text fill="#eeeeee" stroke="none" font-family="Arial" font-size="24px" font-style="normal" font-weight="normal" text-decoration="none" x="0" y="90">UNREGISTERED</text><text fill="#eeeeee" stroke="none" font-family="Arial" font-size="24px" font-style="normal" font-weight="normal" text-decoration="none" x="0" y="120">UNREGISTERED</text><text fill="#eeeeee" stroke="none" font-family="Arial" font-size="24px" font-style="normal" font-weight="normal" text-decoration="none" x="0" y="150">UNREGISTERED</text><text fill="#eeeeee" stroke="none" font-family="Arial" font-size="24px" font-style="normal" font-weight="normal" text-decoration="none" x="200" y="0">UNREGISTERED</text><text fill="#eeeeee" stroke="none" font-family="Arial" font-size="24px" font-style="normal" font-weight="normal" text-decoration="none" x="200" y="30">UNREGISTERED</text><text fill="#eeeeee" stroke="none" font-family="Arial" font-size="24px" font-style="normal" font-weight="normal" text-decoration="none" x="200" y="60">UNREGISTERED</text><text fill="#eeeeee" stroke="none" font-family="Arial" font-size="24px" font-style="normal" font-weight="normal" text-decoration="none" x="200" y="90">UNREGISTERED</text><text fill="#eeeeee" stroke="none" font-family="Arial" font-size="24px" font-style="normal" font-weight="normal" text-decoration="none" x="200" y="120">UNREGISTERED</text><text fill="#eeeeee" stroke="none" font-family="Arial" font-size="24px" font-style="normal" font-weight="normal" text-decoration="none" x="200" y="150">UNREGISTERED</text><text fill="#eeeeee" stroke="none" font-family="Arial" font-size="24px" font-style="normal" font-weight="normal" text-decoration="none" x="400" y="0">UNREGISTERED</text><text fill="#eeeeee" stroke="none" font-family="Arial" font-size="24px" font-style="normal" font-weight="normal" text-decoration="none" x="400" y="30">UNREGISTERED</text><text fill="#eeeeee" stroke="none" font-family="Arial" font-size="24px" font-style="normal" font-weight="normal" text-decoration="none" x="400" y="60">UNREGISTERED</text><text fill="#eeeeee" stroke="none" font-family="Arial" font-size="24px" font-style="normal" font-weight="normal" text-decoration="none" x="400" y="90">UNREGISTERED</text><text fill="#eeeeee" stroke="none" font-family="Arial" font-size="24px" font-style="normal" font-weight="normal" text-decoration="none" x="400" y="120">UNREGISTERED</text><text fill="#eeeeee" stroke="none" font-family="Arial" font-size="24px" font-style="normal" font-weight="normal" text-decoration="none" x="400" y="150">UNREGISTERED</text><g transform="translate(-170,-92) scale(1,1)"><rect fill="#C0C0C0" stroke="none" x="187" y="109" width="83.60000000000002" height="15" opacity="0.2"/></g><g transform="translate(-170,-92) scale(1,1)"><rect fill="#C0C0C0" stroke="none" x="187" y="123" width="209" height="142" opacity="0.2"/></g><g transform="translate(-170,-92) scale(1,1)"><rect fill="#ffffff" stroke="none" x="180" y="117" width="209" height="141"/></g><g transform="translate(-170,-92) scale(1,1)"><path fill="none" stroke="#000000" d="M 180 117 L 389 117 L 389 258 L 180 258 L 180 117 Z Z" stroke-miterlimit="10"/></g><g transform="translate(-170,-92) scale(1,1)"><rect fill="#ffffff" stroke="none" x="180" y="102" width="83.60000000000002" height="15"/></g><g transform="translate(-170,-92) scale(1,1)"><path fill="none" stroke="#000000" d="M 180 102 L 263.6 102 L 263.6 117 L 180 117 L 180 102 Z Z" stroke-miterlimit="10"/></g><g transform="translate(-170,-92) scale(1,1)"><rect fill="#ffffff" stroke="none" x="180" y="116" width="209" height="142"/></g><g transform="translate(-170,-92) scale(1,1)"><path fill="none" stroke="#000000" d="M 180 116 L 389 116 L 389 258 L 180 258 L 180 116 Z Z" stroke-miterlimit="10"/></g><g transform="translate(-170,-92) scale(1,1)"><g><path fill="none" stroke="none"/><text fill="#000000" stroke="none" font-family="Arial" font-size="13px" font-style="normal" font-weight="bold" text-decoration="none" x="266.082275390625" y="136.5">URNA</text></g></g><g transform="translate(-170,-92) scale(1,1)"><rect fill="#C0C0C0" stroke="none" x="495" y="109" width="83.60000000000002" height="15" opacity="0.2"/></g><g transform="translate(-170,-92) scale(1,1)"><rect fill="#C0C0C0" stroke="none" x="495" y="123" width="209" height="142" opacity="0.2"/></g><g transform="translate(-170,-92) scale(1,1)"><rect fill="#ffffff" stroke="none" x="488" y="117" width="209" height="141"/></g><g transform="translate(-170,-92) scale(1,1)"><path fill="none" stroke="#000000" d="M 488 117 L 697 117 L 697 258 L 488 258 L 488 117 Z Z" stroke-miterlimit="10"/></g><g transform="translate(-170,-92) scale(1,1)"><rect fill="#ffffff" stroke="none" x="488" y="102" width="83.60000000000002" height="15"/></g><g transform="translate(-170,-92) scale(1,1)"><path fill="none" stroke="#000000" d="M 488 102 L 571.6 102 L 571.6 117 L 488 117 L 488 102 Z Z" stroke-miterlimit="10"/></g><g transform="translate(-170,-92) scale(1,1)"><rect fill="#ffffff" stroke="none" x="488" y="116" width="209" height="142"/></g><g transform="translate(-170,-92) scale(1,1)"><path fill="none" stroke="#000000" d="M 488 116 L 697 116 L 697 258 L 488 258 L 488 116 Z Z" stroke-miterlimit="10"/></g><g transform="translate(-170,-92) scale(1,1)"><g><path fill="none" stroke="none"/><text fill="#000000" stroke="none" font-family="Arial" font-size="13px" font-style="normal" font-weight="bold" text-decoration="none" x="562.161376953125" y="136.5">CENTRAL</text></g></g><g transform="translate(-170,-92) scale(1,1)"><rect fill="#C0C0C0" stroke="none" x="543" y="195" width="22.955273437499955" height="15" opacity="0.2"/></g><g transform="translate(-170,-92) scale(1,1)"><rect fill="#C0C0C0" stroke="none" x="543" y="209" width="57.38818359375" height="25" opacity="0.2"/></g><g transform="translate(-170,-92) scale(1,1)"><rect fill="#ffffff" stroke="none" x="536" y="203" width="57.38818359375" height="24"/></g><g transform="translate(-170,-92) scale(1,1)"><path fill="none" stroke="#000000" d="M 536 203 L 593.38818359375 203 L 593.38818359375 227 L 536 227 L 536 203 Z Z" stroke-miterlimit="10"/></g><g transform="translate(-170,-92) scale(1,1)"><rect fill="#ffffff" stroke="none" x="536" y="188" width="22.955273437499955" height="15"/></g><g transform="translate(-170,-92) scale(1,1)"><path fill="none" stroke="#000000" d="M 536 188 L 558.9552734375 188 L 558.9552734375 203 L 536 203 L 536 188 Z Z" stroke-miterlimit="10"/></g><g transform="translate(-170,-92) scale(1,1)"><rect fill="#ffffff" stroke="none" x="536" y="202" width="57.38818359375" height="25"/></g><g transform="translate(-170,-92) scale(1,1)"><path fill="none" stroke="#000000" d="M 536 202 L 593.38818359375 202 L 593.38818359375 227 L 536 227 L 536 202 Z Z" stroke-miterlimit="10"/></g><g transform="translate(-170,-92) scale(1,1)"><g><path fill="none" stroke="none"/><text fill="#000000" stroke="none" font-family="Arial" font-size="13px" font-style="normal" font-weight="bold" text-decoration="none" x="541.94091796875" y="222.5">Comum</text></g></g><g transform="translate(-170,-92) scale(1,1)"><rect fill="#C0C0C0" stroke="none" x="199" y="195" width="22.95527343750001" height="15" opacity="0.2"/></g><g transform="translate(-170,-92) scale(1,1)"><rect fill="#C0C0C0" stroke="none" x="199" y="209" width="57.38818359375" height="25" opacity="0.2"/></g><g transform="translate(-170,-92) scale(1,1)"><rect fill="#ffffff" stroke="none" x="192" y="203" width="57.38818359375" height="24"/></g><g transform="translate(-170,-92) scale(1,1)"><path fill="none" stroke="#000000" d="M 192 203 L 249.38818359375 203 L 249.38818359375 227 L 192 227 L 192 203 Z Z" stroke-miterlimit="10"/></g><g transform="translate(-170,-92) scale(1,1)"><rect fill="#ffffff" stroke="none" x="192" y="188" width="22.95527343750001" height="15"/></g><g transform="translate(-170,-92) scale(1,1)"><path fill="none" stroke="#000000" d="M 192 188 L 214.9552734375 188 L 214.9552734375 203 L 192 203 L 192 188 Z Z" stroke-miterlimit="10"/></g><g transform="translate(-170,-92) scale(1,1)"><rect fill="#ffffff" stroke="none" x="192" y="202" width="57.38818359375" height="25"/></g><g transform="translate(-170,-92) scale(1,1)"><path fill="none" stroke="#000000" d="M 192 202 L 249.38818359375 202 L 249.38818359375 227 L 192 227 L 192 202 Z Z" stroke-miterlimit="10"/></g><g transform="translate(-170,-92) scale(1,1)"><g><path fill="none" stroke="none"/><text fill="#000000" stroke="none" font-family="Arial" font-size="13px" font-style="normal" font-weight="bold" text-decoration="none" x="197.94091796875" y="222.5">Comum</text></g></g></g></svg>